<svg width="257" height="57" viewBox="0 0 257 57" fill="none" xmlns="http://www.w3.org/2000/svg">
<path fill-rule="evenodd" clip-rule="evenodd" d="M36 53.5L55.5 0H73L79 11C106.797 -1.07935 125.486 -0.736529 150 13C118.056 8.01539 102.495 8.75509 82 21L95 50H79L69 28C55.3095 35.7314 47.8914 41.0861 36 53.5ZM62.5 14.5H63.5L66 19.5V21L60 24.5L62.5 14.5Z" fill="#E10019"/>
<path d="M4.95 46C4.65 46 4.395 45.91 4.185 45.73C4.005 45.52 3.915 45.265 3.915 44.965V15.58C3.915 15.25 4.005 14.995 4.185 14.815C4.395 14.605 4.65 14.5 4.95 14.5H7.2C7.56 14.5 7.83 14.59 8.01 14.77C8.19 14.95 8.295 15.1 8.325 15.22L17.865 33.4L27.45 15.22C27.51 15.1 27.615 14.95 27.765 14.77C27.945 14.59 28.215 14.5 28.575 14.5H30.78C31.11 14.5 31.365 14.605 31.545 14.815C31.755 14.995 31.86 15.25 31.86 15.58V44.965C31.86 45.265 31.755 45.52 31.545 45.73C31.365 45.91 31.11 46 30.78 46H28.575C28.275 46 28.02 45.91 27.81 45.73C27.63 45.52 27.54 45.265 27.54 44.965V22.825L20.025 37.495C19.905 37.795 19.725 38.035 19.485 38.215C19.245 38.365 18.945 38.44 18.585 38.44H17.19C16.8 38.44 16.485 38.365 16.245 38.215C16.035 38.035 15.855 37.795 15.705 37.495L8.19 22.825V44.965C8.19 45.265 8.085 45.52 7.875 45.73C7.695 45.91 7.455 46 7.155 46H4.95Z" fill="white"/>
<path d="M97.95 46C97.62 46 97.365 45.91 97.185 45.73C97.005 45.52 96.915 45.265 96.915 44.965V15.58C96.915 15.25 97.005 14.995 97.185 14.815C97.365 14.605 97.62 14.5 97.95 14.5H108.165C111.255 14.5 113.745 14.965 115.635 15.895C117.525 16.825 118.905 18.205 119.775 20.035C120.645 21.835 121.095 24.055 121.125 26.695C121.155 28.045 121.17 29.23 121.17 30.25C121.17 31.27 121.155 32.44 121.125 33.76C121.065 36.52 120.6 38.815 119.73 40.645C118.89 42.445 117.54 43.795 115.68 44.695C113.85 45.565 111.42 46 108.39 46H97.95ZM101.325 42.175H108.165C110.235 42.175 111.885 41.89 113.115 41.32C114.345 40.75 115.23 39.835 115.77 38.575C116.34 37.315 116.64 35.65 116.67 33.58C116.73 32.68 116.76 31.9 116.76 31.24C116.76 30.55 116.76 29.875 116.76 29.215C116.76 28.525 116.73 27.745 116.67 26.875C116.61 23.965 115.92 21.82 114.6 20.44C113.28 19.03 111.06 18.325 107.94 18.325H101.325V42.175Z" fill="white"/>
<path d="M142.95 46C142.62 46 142.365 45.91 142.185 45.73C142.005 45.52 141.915 45.265 141.915 44.965V15.535C141.915 15.235 142.005 14.995 142.185 14.815C142.365 14.605 142.62 14.5 142.95 14.5H145.335C145.635 14.5 145.875 14.605 146.055 14.815C146.265 14.995 146.37 15.235 146.37 15.535V44.965C146.37 45.265 146.265 45.52 146.055 45.73C145.875 45.91 145.635 46 145.335 46H142.95Z" fill="white"/>
<path d="M177.365 46C177.065 46 176.81 45.91 176.6 45.73C176.42 45.52 176.33 45.265 176.33 44.965V34.345L165.485 15.985C165.455 15.895 165.425 15.805 165.395 15.715C165.365 15.625 165.35 15.52 165.35 15.4C165.35 15.16 165.44 14.95 165.62 14.77C165.8 14.59 166.01 14.5 166.25 14.5H168.59C168.86 14.5 169.1 14.575 169.31 14.725C169.52 14.845 169.67 15.025 169.76 15.265L178.535 29.845L187.31 15.265C187.46 15.025 187.625 14.845 187.805 14.725C188.015 14.575 188.255 14.5 188.525 14.5H190.82C191.09 14.5 191.315 14.59 191.495 14.77C191.675 14.95 191.765 15.16 191.765 15.4C191.765 15.52 191.75 15.625 191.72 15.715C191.69 15.805 191.645 15.895 191.585 15.985L180.785 34.345V44.965C180.785 45.265 180.68 45.52 180.47 45.73C180.29 45.91 180.035 46 179.705 46H177.365Z" fill="white"/>
<path fill-rule="evenodd" clip-rule="evenodd" d="M232 3.75V6.25C230.51 7.17997 230.661 7.84208 232 9.25H234L238.5 6.25L244.5 7.25L242.5 9.25C240.834 10.3915 241.185 11.1819 243 12.75H249L253.5 16.25L252 17.25H250C247.801 19.162 249.279 20.4105 254 22.75L257 28.75L254 28.25C251.746 27.3543 251.269 27.9962 251.5 30.75L254 34.75L253.5 41.25L252 39.75C250.156 37.4448 249.265 37.3209 248 39.75V45.75L244.5 50.25L243.5 48.75V46.75C242.317 45.3955 241.551 45.3891 240 46.75L237.5 51.25L232 53.25L232.5 51.25L233 50.25C232.215 48.3315 231.568 47.925 230 48.75C228.432 49.575 225.5 51.25 225.5 51.25L219.5 50.25L222 47.75C222.854 46.4746 221.968 44.6662 221 44.75C220.032 44.8338 215 44.75 215 44.75L210 41.25L212 40.25H214C215.212 39.399 215.316 38.7403 214.5 37.25L209.5 34.25L207 28.75L211 29.75C211 29.75 213 28.4158 212 26.75L210 22.75L210.5 16.25L212 17.75C213 20.25 215.5 19.75 216 17.75V11.75L219.5 7.25L220 8.75V10.75C221.501 12.1317 222.38 12.0673 224 10.75L226 6.75L232 3.75ZM231.5 45.75C241.165 45.75 249 37.915 249 28.25C249 18.585 241.165 10.75 231.5 10.75C221.835 10.75 214 18.585 214 28.25C214 37.915 221.835 45.75 231.5 45.75Z" fill="white"/>
<circle cx="232" cy="28.75" r="6" fill="white"/>
<path fill-rule="evenodd" clip-rule="evenodd" d="M231.5 44.75C240.613 44.75 248 37.3627 248 28.25C248 19.1373 240.613 11.75 231.5 11.75C222.387 11.75 215 19.1373 215 28.25C215 37.3627 222.387 44.75 231.5 44.75ZM247.5 28.25C247.5 37.0866 240.337 44.25 231.5 44.25C222.663 44.25 215.5 37.0866 215.5 28.25C215.5 19.4134 222.663 12.25 231.5 12.25C240.337 12.25 247.5 19.4134 247.5 28.25Z" fill="white"/>
</svg>
