<svg width="50" height="50" viewBox="0 0 50 50" fill="none" xmlns="http://www.w3.org/2000/svg">
<path fill-rule="evenodd" clip-rule="evenodd" d="M25 0V2.5C23.5105 3.42997 23.661 4.09208 25 5.5H27L31.5 2.5L37.5 3.5L35.5 5.5C33.8343 6.64152 34.1846 7.43191 36 9H42L46.5 12.5L45 13.5H43C40.8013 15.412 42.2795 16.6605 47 19L50 25L47 24.5C44.7462 23.6043 44.2687 24.2462 44.5 27L47 31L46.5 37.5L45 36C43.1561 33.6948 42.265 33.5709 41 36V42L37.5 46.5L36.5 45V43C35.317 41.6455 34.5513 41.6391 33 43L30.5 47.5L25 49.5L25.5 47.5L26 46.5C25.2155 44.5815 24.5678 44.175 23 45C21.4322 45.825 18.5 47.5 18.5 47.5L12.5 46.5L15 44C15.854 42.7246 14.9684 40.9162 14 41C13.0316 41.0838 8 41 8 41L3 37.5L5 36.5H7C8.21241 35.649 8.31578 34.9903 7.5 33.5L2.5 30.5L0 25L4 26C4 26 6.00046 24.6658 5 23L3 19L3.5 12.5L5 14C6 16.5 8.5 16 9 14V8L12.5 3.5L13 5V7C14.5014 8.38172 15.3797 8.31725 17 7L19 3L25 0ZM24.5 42C34.165 42 42 34.165 42 24.5C42 14.835 34.165 7 24.5 7C14.835 7 7 14.835 7 24.5C7 34.165 14.835 42 24.5 42Z" fill="#130F40"/>
<circle cx="25" cy="25" r="6" fill="#130F40"/>
<path fill-rule="evenodd" clip-rule="evenodd" d="M24.5 41C33.6127 41 41 33.6127 41 24.5C41 15.3873 33.6127 8 24.5 8C15.3873 8 8 15.3873 8 24.5C8 33.6127 15.3873 41 24.5 41ZM40.5 24.5C40.5 33.3366 33.3366 40.5 24.5 40.5C15.6634 40.5 8.5 33.3366 8.5 24.5C8.5 15.6634 15.6634 8.5 24.5 8.5C33.3366 8.5 40.5 15.6634 40.5 24.5Z" fill="#130F40"/>
</svg>
